<svg width="20" height="20" viewBox="0 0 20 20" fill="none" xmlns="http://www.w3.org/2000/svg">
<g clip-path="url(#clip0_2_33084)">
<path d="M10.0003 3.95833C11.4753 3.95833 12.7961 4.46668 13.8378 5.45832L16.6919 2.60417C14.9585 0.991667 12.6961 0 10.0003 0C6.0919 0 2.71273 2.24167 1.06689 5.50832L4.3919 8.08748C5.17938 5.71668 7.3919 3.95833 10.0003 3.95833Z" fill="#EA4335"/>
<path d="M19.575 10.2291C19.575 9.57498 19.5125 8.94165 19.4167 8.33331H10V12.0916H15.3917C15.15 13.325 14.45 14.375 13.4 15.0833L16.6208 17.5833C18.5 15.8416 19.575 13.2666 19.575 10.2291Z" fill="#4285F4"/>
<path d="M4.38748 11.9124C4.18748 11.3083 4.07084 10.6666 4.07084 9.99994C4.07084 9.33327 4.18332 8.69161 4.38748 8.08744L1.0625 5.50824C0.383333 6.85824 0 8.38327 0 9.99994C0 11.6166 0.383333 13.1416 1.06667 14.4916L4.38748 11.9124Z" fill="#FBBC05"/>
<path d="M10.0004 20.0001C12.7004 20.0001 14.9712 19.1125 16.6212 17.5792L13.4004 15.0792C12.5045 15.6833 11.3504 16.0375 10.0004 16.0375C7.39204 16.0375 5.17952 14.2792 4.38786 11.9083L1.06287 14.4875C2.71287 17.7583 6.09204 20.0001 10.0004 20.0001Z" fill="#34A853"/>
</g>
<defs>
<clipPath id="clip0_2_33084">
<rect width="20" height="20" fill="white"/>
</clipPath>
</defs>
</svg>
